<svg xmlns="http://www.w3.org/2000/svg" viewBox="0 0 513 342"><path fill="#FFDA44" d="M0 0h513v342H0z"/><path fill="#0052B4" d="M0 0h171v342H0z"/><path fill="#D80027" d="M342 0h171v342H342zM198.92 113.58H256v64.8h-57.08zM309.16 228.68 256 243.18v-64.8h57.08z"/><path fill="#BC8B00" d="M182.24 95.92v92.2c0 34.32 27.26 54.17 48.63 64.46-.8 1.37 25.13 8.26 25.13 8.26s25.93-6.9 25.13-8.26c21.38-10.29 48.63-30.14 48.63-64.46v-92.2H182.24zm129.86 92.2c0 16.88-10 29.43-32.76 43.9-8.62 5.48-17.54 9.03-23.34 11.01-5.8-1.98-14.72-5.53-23.34-11.01-22.76-14.47-32.76-28.02-32.76-43.9v-74.54h112.2v74.54z"/></svg>