<svg xmlns="http://www.w3.org/2000/svg" viewBox="0 0 513 342"><path d="M0 171h513v171H0z"/><path fill="#D80027" d="M0 0h513v171H0z"/><g fill="#FFDA44"><path d="M197.01 139.81c-9.32 12.37-9 27.81 3.37 37.12 0 0 162.62 122.13 164.64 123.93 2.02 1.8 6.3 2.38 11-3.27 4.46-5.36 3.31-9.78 1.04-11.63S197.01 139.81 197.01 139.81zM264.42 79.12l11.72 24.03 26.45 3.96-19.23 18.58 4.4 26.38-23.61-12.55-23.73 12.33 4.64-26.33L226 106.77l26.47-3.73z"/><path d="m268.67 39.2-3.2 22.04c51.81 3.9 92.64 47.18 92.64 99.99 0 55.38-44.9 100.28-100.28 100.28-40.82 0-75.94-24.39-91.59-59.4l-18.4 13.11c19.96 40.59 61.71 68.52 110 68.52 67.66 0 122.51-54.85 122.51-122.51-.01-64.01-49.1-116.54-111.68-122.03z"/></g></svg>