<svg xmlns="http://www.w3.org/2000/svg" viewBox="0 0 512 341.3"><path fill="#6DA544" d="M0 0h512v341.3H0z"/><path fill="#FFDA44" d="m256 19.3 205.4 151.4L256 322 50.6 170.7z"/><circle fill="#FFF" cx="256" cy="170.7" r="86.5"/><g fill="#0052B4"><path d="M212.8 165.3c-15 0-29.5 2.3-43.2 6.5.6 47.2 39.1 85.3 86.4 85.3 29.3 0 55.2-14.6 70.8-36.9-26.7-33.4-67.9-54.9-114-54.9zM340.9 187.2c1-5.4 1.6-10.9 1.6-16.6 0-47.8-38.7-86.5-86.5-86.5-35.6 0-66.2 21.6-79.5 52.3 11.7-2.4 23.8-3.7 36.2-3.7 50.3.1 95.7 21 128.2 54.5z"/></g></svg>