<svg xmlns="http://www.w3.org/2000/svg" viewBox="0 0 513 342"><rect width="513" height="114" fill="#FF9933"/><rect y="114" width="513" height="114" fill="white"/><rect y="228" width="513" height="114" fill="#138808"/><circle cx="256.5" cy="171" r="34.2" stroke="#000080" stroke-width="4" fill="none"/><circle cx="256.5" cy="171" r="3.42" fill="#000080"/><g stroke="#000080" stroke-width="2"><g id="spoke"><line x1="256.5" y1="137" x2="256.5" y2="205"/></g><use href="#spoke" transform="rotate(15, 256.5, 171)"/><use href="#spoke" transform="rotate(30, 256.5, 171)"/><use href="#spoke" transform="rotate(45, 256.5, 171)"/><use href="#spoke" transform="rotate(60, 256.5, 171)"/><use href="#spoke" transform="rotate(75, 256.5, 171)"/><use href="#spoke" transform="rotate(90, 256.5, 171)"/><use href="#spoke" transform="rotate(105, 256.5, 171)"/><use href="#spoke" transform="rotate(120, 256.5, 171)"/><use href="#spoke" transform="rotate(135, 256.5, 171)"/><use href="#spoke" transform="rotate(150, 256.5, 171)"/><use href="#spoke" transform="rotate(165, 256.5, 171)"/><use href="#spoke" transform="rotate(180, 256.5, 171)"/><use href="#spoke" transform="rotate(195, 256.5, 171)"/><use href="#spoke" transform="rotate(210, 256.5, 171)"/><use href="#spoke" transform="rotate(225, 256.5, 171)"/><use href="#spoke" transform="rotate(240, 256.5, 171)"/><use href="#spoke" transform="rotate(255, 256.5, 171)"/><use href="#spoke" transform="rotate(270, 256.5, 171)"/><use href="#spoke" transform="rotate(285, 256.5, 171)"/><use href="#spoke" transform="rotate(300, 256.5, 171)"/><use href="#spoke" transform="rotate(315, 256.5, 171)"/><use href="#spoke" transform="rotate(330, 256.5, 171)"/><use href="#spoke" transform="rotate(345, 256.5, 171)"/></g></svg>
