<?xml version="1.0" encoding="utf-8"?>
<svg version="1.1" xmlns="http://www.w3.org/2000/svg" viewBox="0 0 513 342">
<rect y="0" fill="#FFFFFF" width="513" height="342"/>
<g fill="#000000">
	<rect x="324.2" y="215.2" transform="matrix(0.7071 -0.7071 0.7071 0.7071 -59.3115 302.8256)" width="23.4" height="15.6"/>
	<rect x="296.7" y="242.8" transform="matrix(0.7071 -0.7071 0.7071 0.7071 -86.8502 291.4109)" width="23.4" height="15.6"/>
	<rect x="357.3" y="248.3" transform="matrix(0.7071 -0.7071 0.7071 0.7071 -72.9899 335.8753)" width="23.4" height="15.6"/>
	<rect x="329.7" y="275.8" transform="matrix(0.7071 -0.7071 0.7071 0.7071 -100.5442 324.4669)" width="23.4" height="15.6"/>
	<rect x="340.7" y="231.7" transform="matrix(0.7071 -0.7071 0.7071 0.7071 -66.1511 319.3503)" width="23.4" height="15.6"/>
	<rect x="313.2" y="259.3" transform="matrix(0.7071 -0.7071 0.7071 0.7071 -93.6968 307.9391)" width="23.4" height="15.6"/>
	<rect x="330.9" y="56.9" transform="matrix(0.7071 -0.7071 0.7071 0.7071 36.9503 265.241)" width="15.6" height="62.3"/>
	<rect x="300.6" y="79.1" transform="matrix(0.7071 -0.7071 0.7071 0.7071 26.1234 244.6194)" width="15.6" height="23.4"/>
	<rect x="328.1" y="106.6" transform="matrix(0.7071 -0.7071 0.7071 0.7071 14.7079 272.1596)" width="15.6" height="23.4"/>
	<rect x="333.6" y="46" transform="matrix(0.7071 -0.7071 0.7071 0.7071 59.1744 258.2977)" width="15.6" height="23.4"/>
	<rect x="361.1" y="73.6" transform="matrix(0.7071 -0.7071 0.7071 0.7071 47.766 285.8541)" width="15.6" height="23.4"/>
	<rect x="149" y="238.7" transform="matrix(0.7071 -0.7071 0.7071 0.7071 -144.8575 189.9302)" width="15.6" height="62.3"/>
	<rect x="179.3" y="255.4" transform="matrix(0.7071 -0.7071 0.7071 0.7071 -134.043 210.54)" width="15.6" height="23.4"/>
	<rect x="151.8" y="227.8" transform="matrix(0.7071 -0.7071 0.7071 0.7071 -122.6292 183.0006)" width="15.6" height="23.4"/>
	<rect x="182.1" y="205.6" transform="matrix(0.7071 -0.7071 0.7071 0.7071 -111.8088 203.6231)" width="15.6" height="62.3"/>
	<rect x="125.7" y="63.7" transform="matrix(0.7071 -0.7071 0.7071 0.7071 -4.6085 131.8382)" width="62.3" height="15.6"/>
	<rect x="142.2" y="80.2" transform="matrix(0.7071 -0.7071 0.7071 0.7071 -11.4651 148.3565)" width="62.3" height="15.6"/>
	<rect x="158.7" y="96.8" transform="matrix(0.7071 -0.7071 0.7071 0.7071 -18.3114 164.8853)" width="62.3" height="15.6"/>
</g>
<circle fill="#D80027" cx="255.8" cy="170.7" r="62.3"/>
<path fill="#0052B4" d="M317.7,178.3c-9.6-25.4-44.3-25-61.8,1.3c-17.6,26.3-43.8,16.9-61.6,0.7c4.6,29.9,30.4,52.7,61.6,52.7
	C287.7,233,313.9,209.1,317.7,178.3z"/>
</svg>
