<svg xmlns="http://www.w3.org/2000/svg" viewBox="85.35 0 341.3 341.3"><path fill="#D80027" d="M0 0h512v341.3H0z"/><g fill="#6DA544"><path d="M215.9 170.7 0 314.6V26.8zM512 26.8v287.8L296.1 170.7z"/></g><path fill="#0052B4" d="M512 26.8 296.1 170.7 512 314.6v26.7h-40.1L256 197.4 40.1 341.3H0v-26.7l215.9-143.9L0 26.8V0h40.1L256 143.9 471.9 0H512z"/><path fill="#FFF" d="M512 26.8 296.1 170.7 512 314.6v26.7h-40.1L256 197.4 40.1 341.3H0v-26.7l215.9-143.9L0 26.8V0h40.1L256 143.9 471.9 0H512z"/><circle fill="#FFF" cx="251.6" cy="170.7" r="100.2"/><g fill="#D80027"><path d="m251.6 93.3 10.1 17.5h20.2l-10.1 17.5 10.1 17.5h-20.2l-10.1 17.5-10.1-17.5h-20.2l10.1-17.5-10.1-17.5h20.2zM210.3 163.4l10.1 17.5h20.3l-10.1 17.5 10.1 17.5h-20.3l-10.1 17.5-10.1-17.5H180l10.1-17.5-10.1-17.5h20.2zM292.8 163.4l10.1 17.5h20.2L313 198.4l10.1 17.5h-20.2l-10.1 17.5-10.1-17.5h-20.2l10.1-17.5-10.1-17.5h20.2z"/></g></svg>