<svg xmlns="http://www.w3.org/2000/svg" viewBox="85.5 0 342 342"><path fill="#FFF" d="M0 0h513v342H0z"/><path fill="#6DA544" d="m364.9 267.7-9.8-13.2c-19.8 14.2-59.7 31.6-92 31.6-31.6 0-70.2-15.1-92-31.6l-9.8 13.2c8.8 9.1 41.4 23.8 78 33.9-3.4 5.3-1.4 5.4 2.3 9.5 7.5-5.8 15.3-1.3 22-6.4 6.6 5.1 14.4.6 22 6.4 4.8-4.9 4.8-4.9 2.2-9.8 36.1-10.3 67.8-24.3 77.1-33.6z"/><path fill="#DB7D00" d="M137.5 173.2s.2 70.5 78.5 68.6l4.7 14.6h9.3s-7.8-43.2 63.2-43.6c0 0 0-29 29-29h43.6s-69.3-54.4 61.9-124l1.9-13.8s-136.5 74.6-209 60.1c0 0 11.2 44.7-11.4 44.7-11.3 0-10.2-8.5-33.9-8.5-19.7 0-18.2 20.7-27.6 20.5s-19.8-12.9-20.6-10.7c-.8 2.2 10.4 21.1 10.4 21.1z"/></svg>