<svg xmlns="http://www.w3.org/2000/svg" viewBox="85.35 0 341.3 341.3"><path fill="#FFF" d="M0 0h512v341.3H0z"/><path fill="#6DA544" d="m371.5 275.9-11.1-15c-22.4 16.1-67.7 35.8-104.3 35.8-35.8 0-79.6-17.1-104.3-35.8l-11.1 15c10 10.3 46.9 27 88.4 38.4-3.9 6-1.6 6.1 2.6 10.8 8.5-6.6 17.4-1.5 24.9-7.3 7.5 5.8 16.3.7 24.9 7.3 5.4-5.6 5.4-5.6 2.5-11.1 41-11.7 77-27.6 87.5-38.1z"/><path fill="#DB7D00" d="M113.7 168.7s.2 79.9 89 77.8L208 263h10.6s-8.9-49 71.7-49.4c0 0 0-32.9 32.9-32.9h49.4S294 119 442.8 40.1l2.2-15.6s-154.8 84.6-237 68.1c0 0 12.7 50.7-12.9 50.7-12.8 0-11.6-9.6-38.4-9.6-22.3 0-20.6 23.5-31.3 23.2S103 142.3 102 144.8s11.7 23.9 11.7 23.9z"/></svg>