<svg xmlns="http://www.w3.org/2000/svg" viewBox="0 0 408 408"><path fill="#039" d="M0 0h408v408H0V0z"/><path fill="#FC0" d="m203.963 45.231 5.089 15.653h16.542l-13.322 9.68 5.015 15.67-13.323-9.68-13.323 9.68 5.089-15.662-13.322-9.68h16.468l5.087-15.661zm-68 18.134 5.089 15.653h16.542l-13.323 9.68 5.016 15.67-13.324-9.68-13.323 9.68 5.089-15.662-13.323-9.681h16.468l5.089-15.66zm-49.867 49.866 5.089 15.653h16.542l-13.323 9.68 5.016 15.67-13.324-9.68-13.323 9.68 5.089-15.662-13.323-9.68h16.468l5.089-15.661zM67.963 181.23l5.089 15.654h16.542l-13.323 9.682 5.016 15.67-13.324-9.682-13.323 9.682 5.089-15.664-13.323-9.679h16.468l5.089-15.663zm18.133 68.001 5.089 15.654h16.542l-13.323 9.68 5.016 15.67-13.324-9.68-13.323 9.68 5.089-15.662-13.323-9.68h16.468l5.089-15.662zm49.867 49.867 5.089 15.654h16.542l-13.323 9.68 5.016 15.67-13.324-9.679-13.323 9.679 5.089-15.661-13.323-9.681h16.468l5.089-15.662zm136-235.733 5.089 15.653h16.542l-13.322 9.68 5.015 15.67-13.323-9.68-13.324 9.68 5.09-15.662-13.322-9.681h16.468l5.087-15.66zm49.867 49.866 5.088 15.653h16.543l-13.323 9.68 5.015 15.67-13.322-9.68-13.324 9.68 5.09-15.662-13.323-9.68h16.468l5.088-15.661zm18.133 68 5.089 15.653h16.542l-13.322 9.682 5.015 15.67-13.323-9.682-13.323 9.682 5.089-15.664-13.322-9.679h16.468l5.087-15.662zm-18.133 68 5.088 15.654h16.543l-13.323 9.68 5.016 15.67-13.323-9.68-13.324 9.68 5.09-15.662-13.323-9.68h16.469l5.087-15.662zm-117.867 68 5.089 15.654h16.542l-13.322 9.68 5.015 15.67-13.323-9.68-13.323 9.68 5.089-15.662-13.322-9.68h16.468l5.087-15.662zm68-18.133 5.089 15.654h16.542l-13.322 9.68 5.016 15.67-13.324-9.68-13.322 9.68 5.088-15.662-13.322-9.68h16.469l5.086-15.662z"/></svg>